<svg width="24" height="25" viewBox="0 0 24 25" fill="none" xmlns="http://www.w3.org/2000/svg">
<path d="M18.8181 9.08542C19.2199 8.98496 19.6271 9.22928 19.7276 9.63112C19.8281 10.033 19.5837 10.4402 19.1819 10.5406L15.1819 11.5406C14.7801 11.6411 14.3729 11.3968 14.2724 10.9949C14.1719 10.5931 14.4163 10.1859 14.8181 10.0854L18.8181 9.08542Z" fill="#272421"/>
<path d="M18.8181 13.0854C19.2199 12.985 19.6271 13.2293 19.7276 13.6311C19.8281 14.033 19.5837 14.4402 19.1819 14.5406L15.1819 15.5406C14.7801 15.6411 14.3729 15.3968 14.2724 14.9949C14.1719 14.5931 14.4163 14.1859 14.8181 14.0854L18.8181 13.0854Z" fill="#272421"/>
<path d="M4.27239 9.63112C4.37285 9.22928 4.78006 8.98496 5.1819 9.08542L9.1819 10.0854C9.58375 10.1859 9.82807 10.5931 9.72761 10.9949C9.62715 11.3968 9.21994 11.6411 8.8181 11.5406L4.8181 10.5406C4.41625 10.4402 4.17193 10.033 4.27239 9.63112Z" fill="#272421"/>
<path d="M4.27239 13.6311C4.37285 13.2293 4.78006 12.985 5.1819 13.0854L9.1819 14.0854C9.58375 14.1859 9.82807 14.5931 9.72761 14.9949C9.62715 15.3968 9.21994 15.6411 8.8181 15.5406L4.8181 14.5406C4.41625 14.4402 4.17193 14.033 4.27239 13.6311Z" fill="#272421"/>
<path fill-rule="evenodd" clip-rule="evenodd" d="M22.75 5.74622C22.75 4.28291 21.5847 3.02797 20.0559 3.08123C18.9175 3.12088 17.4296 3.23929 16.2849 3.58197C15.2899 3.87986 14.1706 4.4617 13.2982 4.96665C12.4801 5.44011 11.4617 5.46373 10.6328 5.02547C9.63736 4.49908 8.32766 3.87514 7.19136 3.57529C6.23055 3.32175 5.01517 3.19997 4.02841 3.13932C2.47017 3.04356 1.25 4.31167 1.25 5.81083V16.9566C1.25 18.4928 2.49378 19.6922 3.96804 19.7844C4.9268 19.8443 6.00566 19.9597 6.80864 20.1716C7.8012 20.4335 9.0286 21.0158 10.0196 21.5441C11.2529 22.2015 12.7471 22.2015 13.9804 21.5441C14.9714 21.0158 16.1988 20.4335 17.1914 20.1716C17.9943 19.9597 19.0732 19.8443 20.032 19.7844C21.5062 19.6922 22.75 18.4928 22.75 16.9566V5.74622ZM20.1081 4.58032C20.7229 4.5589 21.25 5.06463 21.25 5.74622V16.9566C21.25 17.6424 20.6817 18.2408 19.9383 18.2873C18.9582 18.3486 17.7591 18.4704 16.8086 18.7212C15.6383 19.03 14.2827 19.6831 13.2748 20.2204C13.1065 20.3101 12.9305 20.3807 12.75 20.4323V6.75506C13.2023 6.66452 13.6421 6.5007 14.0495 6.2649C14.9 5.77271 15.8949 5.26451 16.7151 5.01896C17.6643 4.73481 18.9892 4.61929 20.1081 4.58032ZM11.25 6.788C10.795 6.71725 10.349 6.57217 9.93167 6.3515C8.95486 5.83498 7.77076 5.27953 6.80864 5.02564C5.99643 4.81132 4.90238 4.69587 3.93639 4.6365C3.30243 4.59754 2.75 5.11364 2.75 5.81083V16.9566C2.75 17.6424 3.31831 18.2408 4.06168 18.2873C5.04176 18.3486 6.24092 18.4704 7.19136 18.7212C8.3617 19.03 9.71727 19.6831 10.7252 20.2204C10.8935 20.3101 11.0695 20.3807 11.25 20.4323V6.788Z" fill="#272421"/>
</svg>
