<svg width="24" height="25" viewBox="0 0 24 25" fill="none" xmlns="http://www.w3.org/2000/svg">
<path fill-rule="evenodd" clip-rule="evenodd" d="M12.0002 1.56299C9.37683 1.56299 7.25018 3.68964 7.25018 6.31299C7.25018 8.93634 9.37683 11.063 12.0002 11.063C14.6235 11.063 16.7502 8.93634 16.7502 6.31299C16.7502 3.68964 14.6235 1.56299 12.0002 1.56299ZM8.75018 6.31299C8.75018 4.51806 10.2053 3.06299 12.0002 3.06299C13.7951 3.06299 15.2502 4.51806 15.2502 6.31299C15.2502 8.10791 13.7951 9.56299 12.0002 9.56299C10.2053 9.56299 8.75018 8.10791 8.75018 6.31299Z" fill="#272421"/>
<path fill-rule="evenodd" clip-rule="evenodd" d="M2.72778 6.13109C2.62732 5.72924 2.22012 5.48492 1.81828 5.58538C1.41643 5.68584 1.17211 6.09304 1.27257 6.49489L1.65454 8.02276C2.3593 10.8418 4.49604 13.0626 7.25018 13.8917L7.25018 18.365C7.25015 19.2635 7.25012 20.0127 7.33009 20.6075C7.41449 21.2353 7.60016 21.8021 8.05563 22.2575C8.5111 22.713 9.0779 22.8987 9.7057 22.9831C10.3005 23.063 11.0497 23.063 11.9482 23.063H12.0522C12.9507 23.063 13.6999 23.063 14.2947 22.9831C14.9225 22.8987 15.4892 22.713 15.9447 22.2575C16.4002 21.8021 16.5859 21.2353 16.6703 20.6075C16.7502 20.0127 16.7502 19.2635 16.7502 18.365L16.7502 14.172C17.7313 14.4645 18.4808 15.3169 18.6058 16.3801L19.2553 21.9006C19.3037 22.312 19.6764 22.6062 20.0878 22.5579C20.4992 22.5095 20.7934 22.1367 20.745 21.7254L20.0956 16.2048C19.8512 14.1281 18.0912 12.563 16.0002 12.563H8.0847C5.64125 11.9894 3.71957 10.0982 3.10975 7.65895L2.72778 6.13109ZM8.75018 18.313V14.063H15.2502V18.313C15.2502 19.277 15.2486 19.9246 15.1836 20.4076C15.1216 20.8691 15.0144 21.0666 14.8841 21.1969C14.7537 21.3272 14.5562 21.4344 14.0948 21.4965C13.6117 21.5614 12.9642 21.563 12.0002 21.563C11.0362 21.563 10.3886 21.5614 9.90557 21.4965C9.44411 21.4344 9.24661 21.3272 9.11629 21.1969C8.98598 21.0666 8.87875 20.8691 8.81671 20.4076C8.75177 19.9246 8.75018 19.277 8.75018 18.313Z" fill="#272421"/>
</svg>
