<svg width="24" height="25" viewBox="0 0 24 25" fill="none" xmlns="http://www.w3.org/2000/svg">
<path fill-rule="evenodd" clip-rule="evenodd" d="M9.46435 3.63356C11.0871 2.8728 12.9128 2.8728 14.5356 3.63356L21.2268 6.77055C22.2791 7.26389 22.75 8.33521 22.75 9.31301C22.75 10.2908 22.2791 11.3621 21.2268 11.8555L19.75 12.5478V17.4384C19.75 18.6915 19.1217 19.9013 17.978 20.5347C17.2263 20.951 16.2384 21.4521 15.1988 21.851C14.1715 22.2451 13.0339 22.563 12 22.563C10.9661 22.563 9.82851 22.2451 8.80116 21.851C7.76158 21.4521 6.77371 20.951 6.02198 20.5347C4.87826 19.9013 4.25 18.6915 4.25 17.4384V12.5478L2.77323 11.8554L2.75 11.8444V14.813C2.75 15.2272 2.41421 15.563 2 15.563C1.58579 15.563 1.25 15.2272 1.25 14.813V9.31299C1.25 8.33519 1.72095 7.26384 2.77324 6.77051L9.46435 3.63356ZM5.75 13.251V17.4384C5.75 18.2014 6.12875 18.8791 6.74868 19.2224C7.46533 19.6193 8.38678 20.0854 9.33844 20.4505C10.3023 20.8203 11.2379 21.063 12 21.063C12.7621 21.063 13.6977 20.8203 14.6616 20.4505C15.6132 20.0854 16.5347 19.6193 17.2513 19.2224C17.8713 18.8791 18.25 18.2014 18.25 17.4384V13.251L14.5357 14.9924C12.9129 15.7532 11.0872 15.7532 9.46444 14.9924L5.75 13.251ZM3.40996 10.4973C3.00679 10.3083 2.75 9.85737 2.75 9.31297C2.75 8.76856 3.00679 8.31768 3.40997 8.12866L10.1011 4.99171C11.3204 4.42008 12.6795 4.42008 13.8988 4.99171L20.59 8.1287C20.9932 8.31772 21.25 8.7686 21.25 9.31301C21.25 9.85742 20.9932 10.3083 20.59 10.4973L13.8989 13.6343C12.6796 14.2059 11.3205 14.2059 10.1012 13.6343L3.40996 10.4973Z" fill="#272421"/>
</svg>
