<svg width="24" height="25" viewBox="0 0 24 25" fill="none" xmlns="http://www.w3.org/2000/svg">
<path fill-rule="evenodd" clip-rule="evenodd" d="M1.46856 6.78377C1.76084 6.49026 2.23571 6.48927 2.52922 6.78155L6.44789 10.6838C6.96167 11.1955 7.29478 11.5249 7.57219 11.7358C7.83228 11.9335 7.95393 11.9556 8.03449 11.9556C8.11506 11.9556 8.23672 11.9336 8.49695 11.7361C8.77452 11.5255 9.10787 11.1962 9.62203 10.685L9.89627 10.4123C10.3651 9.94603 10.7692 9.54415 11.1362 9.26559C11.5297 8.96699 11.9668 8.74107 12.505 8.74101C13.0432 8.74095 13.4804 8.96676 13.8739 9.26528C14.241 9.54376 14.6452 9.94555 15.1142 10.4117L21.25 16.5101V12.7672C21.25 12.3529 21.5858 12.0172 22 12.0172C22.4142 12.0172 22.75 12.3529 22.75 12.7672V18.313C22.75 18.7272 22.4142 19.063 22 19.063H16.4179C16.0036 19.063 15.6679 18.7272 15.6679 18.313C15.6679 17.8988 16.0036 17.563 16.4179 17.563H20.1815L14.0916 11.5103C13.5778 10.9996 13.2447 10.6707 12.9673 10.4603C12.7073 10.263 12.5857 10.241 12.5052 10.241C12.4247 10.241 12.3031 10.2631 12.0431 10.4604C11.7658 10.6709 11.4327 10.9998 10.919 11.5106L10.6448 11.7834C10.1755 12.25 9.77105 12.6522 9.40375 12.931C9.01003 13.2298 8.57254 13.4558 8.03395 13.4556C7.49535 13.4554 7.05802 13.2291 6.66452 12.93C6.29742 12.651 5.89326 12.2485 5.42433 11.7814C5.41275 11.7699 5.40112 11.7583 5.38945 11.7467L1.47078 7.84443C1.17728 7.55215 1.17628 7.07728 1.46856 6.78377Z" fill="#272421"/>
</svg>
