<svg width="170" height="171" viewBox="0 0 170 171" fill="none" xmlns="http://www.w3.org/2000/svg">
<g filter="url(#filter0_f_234_1960)">
<circle cx="85" cy="85.1184" r="81.5" stroke="#F5E0D5"/>
</g>
<path fill-rule="evenodd" clip-rule="evenodd" d="M105 84.1184C105 95.1641 96.0457 104.118 85 104.118C73.9543 104.118 65 95.1641 65 84.1184C65 73.0727 73.9543 64.1184 85 64.1184C96.0457 64.1184 105 73.0727 105 84.1184ZM71.9211 82.285C72.6666 75.7181 78.2481 70.6184 85.0191 70.6184C89.2959 70.6184 93.0978 72.6542 95.5041 75.8033C96.0071 76.4615 95.8812 77.4029 95.223 77.9059C94.5647 78.4089 93.6234 78.283 93.1204 77.6248C91.2578 75.1873 88.3225 73.6184 85.0191 73.6184C79.9043 73.6184 75.6728 77.3828 74.9466 82.285H75.673C76.2799 82.285 76.827 82.6507 77.0591 83.2115C77.2911 83.7723 77.1624 84.4176 76.733 84.8464L74.3965 87.1798C73.8108 87.7646 72.8622 87.7646 72.2766 87.1798L69.9401 84.8464C69.5106 84.4176 69.3819 83.7723 69.614 83.2115C69.846 82.6507 70.3931 82.285 71 82.285H71.9211ZM97.7235 81.057C97.1378 80.4722 96.1892 80.4722 95.6036 81.057L93.2671 83.3903C92.8376 83.8192 92.7089 84.4645 92.941 85.0253C93.173 85.586 93.7201 85.9517 94.327 85.9517H95.0534C94.3273 90.854 90.0958 94.6184 84.9809 94.6184C81.6929 94.6184 78.7697 93.0641 76.9058 90.646C76.4 89.9899 75.4582 89.868 74.802 90.3737C74.1459 90.8795 74.024 91.8214 74.5297 92.4775C76.9377 95.6015 80.7241 97.6184 84.9809 97.6184C91.752 97.6184 97.3334 92.5186 98.0789 85.9517H99C99.6069 85.9517 100.154 85.586 100.386 85.0253C100.618 84.4645 100.489 83.8192 100.06 83.3903L97.7235 81.057Z" fill="#4A423D"/>
<rect x="3" y="3.11841" width="40" height="40" rx="8" fill="#F8E8DF"/>
<path fill-rule="evenodd" clip-rule="evenodd" d="M23.0494 12.3684H22.9506C22.2858 12.3684 21.7129 12.3683 21.2542 12.43C20.7625 12.4961 20.2913 12.6452 19.909 13.0274C19.5268 13.4097 19.3777 13.8809 19.3116 14.3726C19.2499 14.8313 19.25 15.4042 19.25 16.069L19.25 18.4964C19.0154 18.4135 18.763 18.3684 18.5 18.3684H15.5C14.2574 18.3684 13.25 19.3758 13.25 20.6184V32.3684H13C12.5858 32.3684 12.25 32.7042 12.25 33.1184C12.25 33.5326 12.5858 33.8684 13 33.8684H33C33.4142 33.8684 33.75 33.5326 33.75 33.1184C33.75 32.7042 33.4142 32.3684 33 32.3684H32.75V25.6184C32.75 24.3758 31.7426 23.3684 30.5 23.3684H27.5C27.237 23.3684 26.9846 23.4135 26.75 23.4964L26.75 16.069C26.75 15.4042 26.7501 14.8313 26.6884 14.3726C26.6223 13.8809 26.4732 13.4097 26.091 13.0274C25.7087 12.6452 25.2375 12.4961 24.7458 12.43C24.2871 12.3683 23.7142 12.3684 23.0494 12.3684ZM31.25 32.3684V25.6184C31.25 25.2042 30.9142 24.8684 30.5 24.8684H27.5C27.0858 24.8684 26.75 25.2042 26.75 25.6184V32.3684H31.25ZM25.25 32.3684V16.1184C25.25 15.3901 25.2484 14.9193 25.2018 14.5724C25.158 14.2471 25.0874 14.1452 25.0303 14.0881C24.9732 14.031 24.8713 13.9604 24.546 13.9166C24.1991 13.87 23.7283 13.8684 23 13.8684C22.2717 13.8684 21.8009 13.87 21.454 13.9166C21.1287 13.9604 21.0268 14.031 20.9697 14.0881C20.9126 14.1452 20.842 14.2471 20.7982 14.5724C20.7516 14.9193 20.75 15.3901 20.75 16.1184V32.3684H25.25ZM19.25 32.3684V20.6184C19.25 20.2042 18.9142 19.8684 18.5 19.8684H15.5C15.0858 19.8684 14.75 20.2042 14.75 20.6184V32.3684H19.25Z" fill="#4A423D"/>
<rect x="127" y="3.11841" width="40" height="40" rx="8" fill="#F8E8DF"/>
<path fill-rule="evenodd" clip-rule="evenodd" d="M151.25 14.8684V16.5579L153.25 18.1579V14.8684H151.25ZM154.75 19.3579V14.6184C154.75 13.9281 154.19 13.3684 153.5 13.3684H151C150.31 13.3684 149.75 13.9281 149.75 14.6184V15.3579L149.343 15.032C147.973 13.9364 146.027 13.9364 144.657 15.032L136.532 21.5328C136.208 21.7915 136.156 22.2635 136.414 22.5869C136.673 22.9104 137.145 22.9628 137.469 22.7041L138.25 22.0789V32.3684H137C136.586 32.3684 136.25 32.7042 136.25 33.1184C136.25 33.5326 136.586 33.8684 137 33.8684H157C157.414 33.8684 157.75 33.5326 157.75 33.1184C157.75 32.7042 157.414 32.3684 157 32.3684H155.75V22.0789L156.532 22.7041C156.855 22.9628 157.327 22.9104 157.586 22.5869C157.844 22.2635 157.792 21.7915 157.469 21.5328L154.75 19.3579ZM154.25 20.8789L148.406 16.2033C147.584 15.5459 146.416 15.5459 145.594 16.2033L139.75 20.8789V32.3684H143.25L143.25 28.069C143.25 27.4042 143.25 26.8313 143.312 26.3726C143.378 25.8809 143.527 25.4097 143.909 25.0274C144.291 24.6452 144.763 24.4961 145.254 24.43C145.713 24.3683 146.286 24.3684 146.951 24.3684H147.049C147.714 24.3684 148.287 24.3683 148.746 24.43C149.238 24.4961 149.709 24.6452 150.091 25.0274C150.473 25.4097 150.622 25.8809 150.688 26.3726C150.75 26.8313 150.75 27.4042 150.75 28.069L150.75 32.3684H154.25V20.8789ZM149.25 32.3684V28.1184C149.25 27.3901 149.248 26.9193 149.202 26.5724C149.158 26.2471 149.087 26.1452 149.03 26.0881C148.973 26.031 148.871 25.9604 148.546 25.9166C148.199 25.87 147.728 25.8684 147 25.8684C146.272 25.8684 145.801 25.87 145.454 25.9166C145.129 25.9604 145.027 26.031 144.97 26.0881C144.913 26.1452 144.842 26.2471 144.798 26.5724C144.752 26.9193 144.75 27.3901 144.75 28.1184V32.3684H149.25ZM147 19.3684C146.31 19.3684 145.75 19.9281 145.75 20.6184C145.75 21.3088 146.31 21.8684 147 21.8684C147.69 21.8684 148.25 21.3088 148.25 20.6184C148.25 19.9281 147.69 19.3684 147 19.3684ZM144.25 20.6184C144.25 19.0996 145.481 17.8684 147 17.8684C148.519 17.8684 149.75 19.0996 149.75 20.6184C149.75 22.1372 148.519 23.3684 147 23.3684C145.481 23.3684 144.25 22.1372 144.25 20.6184Z" fill="#4A423D"/>
<rect x="3" y="127.118" width="40" height="40" rx="8" fill="#F8E8DF"/>
<path fill-rule="evenodd" clip-rule="evenodd" d="M23 137.868C17.8914 137.868 13.75 142.01 13.75 147.118C13.75 152.227 17.8914 156.368 23 156.368C28.1086 156.368 32.25 152.227 32.25 147.118C32.25 142.01 28.1086 137.868 23 137.868ZM12.25 147.118C12.25 141.181 17.0629 136.368 23 136.368C28.9371 136.368 33.75 141.181 33.75 147.118C33.75 153.055 28.9371 157.868 23 157.868C17.0629 157.868 12.25 153.055 12.25 147.118ZM23 140.368C23.4142 140.368 23.75 140.704 23.75 141.118V141.435C25.3804 141.727 26.75 142.952 26.75 144.618C26.75 145.033 26.4142 145.368 26 145.368C25.5858 145.368 25.25 145.033 25.25 144.618C25.25 143.774 24.3765 142.868 23 142.868C21.6235 142.868 20.75 143.774 20.75 144.618C20.75 145.463 21.6235 146.368 23 146.368C24.9372 146.368 26.75 147.701 26.75 149.618C26.75 151.285 25.3804 152.51 23.75 152.802V153.118C23.75 153.533 23.4142 153.868 23 153.868C22.5858 153.868 22.25 153.533 22.25 153.118V152.802C20.6196 152.51 19.25 151.285 19.25 149.618C19.25 149.204 19.5858 148.868 20 148.868C20.4142 148.868 20.75 149.204 20.75 149.618C20.75 150.463 21.6235 151.368 23 151.368C24.3765 151.368 25.25 150.463 25.25 149.618C25.25 148.774 24.3765 147.868 23 147.868C21.0628 147.868 19.25 146.536 19.25 144.618C19.25 142.952 20.6196 141.727 22.25 141.435V141.118C22.25 140.704 22.5858 140.368 23 140.368Z" fill="#4A423D"/>
<rect x="127" y="127.118" width="40" height="40" rx="8" fill="#F8E8DF"/>
<path fill-rule="evenodd" clip-rule="evenodd" d="M144.25 154.618C144.25 154.204 144.586 153.868 145 153.868H149C149.414 153.868 149.75 154.204 149.75 154.618C149.75 155.033 149.414 155.368 149 155.368H145C144.586 155.368 144.25 155.033 144.25 154.618ZM144.917 157.118C144.917 156.704 145.252 156.368 145.667 156.368H148.333C148.748 156.368 149.083 156.704 149.083 157.118C149.083 157.533 148.748 157.868 148.333 157.868H145.667C145.252 157.868 144.917 157.533 144.917 157.118Z" fill="#4A423D"/>
<path fill-rule="evenodd" clip-rule="evenodd" d="M139.25 143.336C139.25 139.432 142.804 136.368 147 136.368C151.196 136.368 154.75 139.432 154.75 143.336L154.75 143.34C154.74 145.546 153.791 147.744 152.106 149.343L152.103 149.345L150.999 150.384C150.84 150.534 150.75 150.743 150.75 150.961C150.75 152.015 149.896 152.868 148.843 152.868H145.157C144.104 152.868 143.25 152.015 143.25 150.961C143.25 150.743 143.16 150.534 143.001 150.384L141.897 149.345L141.894 149.343C140.209 147.744 139.26 145.546 139.25 143.34L139.25 143.336ZM140.75 143.335C140.758 145.12 141.53 146.93 142.926 148.254C142.926 148.254 142.926 148.254 142.927 148.255L144.029 149.292C144.489 149.725 144.75 150.329 144.75 150.961C144.75 151.186 144.932 151.368 145.157 151.368H148.843C149.068 151.368 149.25 151.186 149.25 150.961C149.25 150.329 149.511 149.725 149.971 149.292C149.971 149.292 149.971 149.292 149.971 149.292L151.073 148.255C151.074 148.254 151.074 148.254 151.074 148.254C152.47 146.93 153.242 145.12 153.25 143.335C153.249 140.418 150.535 137.868 147 137.868C143.465 137.868 140.751 140.418 140.75 143.335Z" fill="#4A423D"/>
<defs>
<filter id="filter0_f_234_1960" x="0" y="0.118408" width="170" height="170" filterUnits="userSpaceOnUse" color-interpolation-filters="sRGB">
<feFlood flood-opacity="0" result="BackgroundImageFix"/>
<feBlend mode="normal" in="SourceGraphic" in2="BackgroundImageFix" result="shape"/>
<feGaussianBlur stdDeviation="1.5" result="effect1_foregroundBlur_234_1960"/>
</filter>
</defs>
</svg>
