<svg width="32" height="33" viewBox="0 0 32 33" fill="none" xmlns="http://www.w3.org/2000/svg">
<path d="M28 6.11841H21C19.9391 6.11841 18.9217 6.53984 18.1716 7.28998C17.4214 8.04013 17 9.05754 17 10.1184V21.1184C17 21.3836 16.8946 21.638 16.7071 21.8255C16.5196 22.0131 16.2652 22.1184 16 22.1184C15.7348 22.1184 15.4804 22.0131 15.2929 21.8255C15.1054 21.638 15 21.3836 15 21.1184V10.1184C15 9.05754 14.5786 8.04013 13.8284 7.28998C13.0783 6.53984 12.0609 6.11841 11 6.11841H4C3.46957 6.11841 2.96086 6.32912 2.58579 6.70419C2.21071 7.07927 2 7.58798 2 8.11841V24.1184C2 24.6488 2.21071 25.1575 2.58579 25.5326C2.96086 25.9077 3.46957 26.1184 4 26.1184H12C12.7956 26.1184 13.5587 26.4345 14.1213 26.9971C14.6839 27.5597 15 28.3228 15 29.1184C15 29.3836 15.1054 29.638 15.2929 29.8255C15.4804 30.0131 15.7348 30.1184 16 30.1184C16.2652 30.1184 16.5196 30.0131 16.7071 29.8255C16.8946 29.638 17 29.3836 17 29.1184C17 28.3228 17.3161 27.5597 17.8787 26.9971C18.4413 26.4345 19.2044 26.1184 20 26.1184H28C28.5304 26.1184 29.0391 25.9077 29.4142 25.5326C29.7893 25.1575 30 24.6488 30 24.1184V8.11841C30 7.58798 29.7893 7.07927 29.4142 6.70419C29.0391 6.32912 28.5304 6.11841 28 6.11841ZM26 21.1184H21C20.7348 21.1184 20.4804 21.0131 20.2929 20.8255C20.1054 20.638 20 20.3836 20 20.1184C20 19.8532 20.1054 19.5988 20.2929 19.4113C20.4804 19.2238 20.7348 19.1184 21 19.1184H26C26.2652 19.1184 26.5196 19.2238 26.7071 19.4113C26.8946 19.5988 27 19.8532 27 20.1184C27 20.3836 26.8946 20.638 26.7071 20.8255C26.5196 21.0131 26.2652 21.1184 26 21.1184ZM26 17.1184H21C20.7348 17.1184 20.4804 17.0131 20.2929 16.8255C20.1054 16.638 20 16.3836 20 16.1184C20 15.8532 20.1054 15.5988 20.2929 15.4113C20.4804 15.2238 20.7348 15.1184 21 15.1184H26C26.2652 15.1184 26.5196 15.2238 26.7071 15.4113C26.8946 15.5988 27 15.8532 27 16.1184C27 16.3836 26.8946 16.638 26.7071 16.8255C26.5196 17.0131 26.2652 17.1184 26 17.1184ZM26 13.1184H21C20.7348 13.1184 20.4804 13.0131 20.2929 12.8255C20.1054 12.638 20 12.3836 20 12.1184C20 11.8532 20.1054 11.5988 20.2929 11.4113C20.4804 11.2238 20.7348 11.1184 21 11.1184H26C26.2652 11.1184 26.5196 11.2238 26.7071 11.4113C26.8946 11.5988 27 11.8532 27 12.1184C27 12.3836 26.8946 12.638 26.7071 12.8255C26.5196 13.0131 26.2652 13.1184 26 13.1184Z" fill="#AEC39D"/>
</svg>
