<svg width="32" height="33" viewBox="0 0 32 33" fill="none" xmlns="http://www.w3.org/2000/svg">
<path d="M29 26.1184C29 26.3836 28.8946 26.638 28.7071 26.8255C28.5196 27.0131 28.2652 27.1184 28 27.1184H4C3.73478 27.1184 3.48043 27.0131 3.29289 26.8255C3.10536 26.638 3 26.3836 3 26.1184C3 25.8532 3.10536 25.5988 3.29289 25.4113C3.48043 25.2238 3.73478 25.1184 4 25.1184H28C28.2652 25.1184 28.5196 25.2238 28.7071 25.4113C28.8946 25.5988 29 25.8532 29 26.1184ZM29 7.11841V21.1184C29 21.6488 28.7893 22.1575 28.4142 22.5326C28.0391 22.9077 27.5304 23.1184 27 23.1184H5C4.46957 23.1184 3.96086 22.9077 3.58579 22.5326C3.21071 22.1575 3 21.6488 3 21.1184V7.11841C3 6.58798 3.21071 6.07927 3.58579 5.70419C3.96086 5.32912 4.46957 5.11841 5 5.11841H27C27.5304 5.11841 28.0391 5.32912 28.4142 5.70419C28.7893 6.07927 29 6.58798 29 7.11841ZM20.5 14.1184C20.4999 13.9501 20.4574 13.7845 20.3764 13.637C20.2953 13.4896 20.1783 13.3649 20.0362 13.2747L14.5363 9.77466C14.3851 9.67861 14.2109 9.62493 14.0319 9.61923C13.8528 9.61352 13.6756 9.65599 13.5186 9.74222C13.3616 9.82844 13.2307 9.95524 13.1394 10.1094C13.0482 10.2635 13.0001 10.4393 13 10.6184V17.6184C13.0001 17.7975 13.0482 17.9733 13.1394 18.1274C13.2307 18.2816 13.3616 18.4084 13.5186 18.4946C13.6756 18.5808 13.8528 18.6233 14.0319 18.6176C14.2109 18.6119 14.3851 18.5582 14.5363 18.4622L20.0362 14.9622C20.1783 14.8719 20.2953 14.7473 20.3764 14.5998C20.4574 14.4523 20.4999 14.2867 20.5 14.1184Z" fill="#C39DBC"/>
</svg>
