<svg width="20" height="21" viewBox="0 0 20 21" fill="none" xmlns="http://www.w3.org/2000/svg">
<path fill-rule="evenodd" clip-rule="evenodd" d="M3.67725 15.4417C3.97543 15.2678 4.35811 15.3686 4.532 15.6668C5.22105 16.8484 6.27446 17.7419 7.57352 18.3217C7.88873 18.4624 8.03021 18.832 7.88953 19.1472C7.74885 19.4624 7.37928 19.6039 7.06407 19.4632C5.55448 18.7895 4.28797 17.7297 3.45218 16.2964C3.2783 15.9983 3.37907 15.6156 3.67725 15.4417Z" fill="#FDF7F4"/>
<path fill-rule="evenodd" clip-rule="evenodd" d="M15.7539 3.82745C14.909 2.96455 13.704 2.64626 12.5244 2.98191C12.1924 3.07638 11.8467 2.88382 11.7522 2.55182C11.6577 2.21982 11.8503 1.8741 12.1823 1.77963C13.7975 1.32006 15.4778 1.75883 16.647 2.95291C16.8885 3.19955 16.8844 3.59525 16.6377 3.83675C16.3911 4.07824 15.9954 4.07408 15.7539 3.82745Z" fill="#FDF7F4"/>
<path fill-rule="evenodd" clip-rule="evenodd" d="M9.32421 3.31615C9.14582 3.01026 8.62598 2.82474 8.09792 3.12654C7.57179 3.42723 7.47926 3.95726 7.65453 4.25783L9.75925 7.8671C9.93313 8.16528 9.83236 8.54797 9.53418 8.72185C9.236 8.89573 8.85332 8.79497 8.67943 8.49678L5.87315 3.68443C5.69477 3.37853 5.17492 3.19302 4.64686 3.49481C4.12073 3.7955 4.0282 4.32553 4.20348 4.62611L7.36055 10.04C7.53443 10.3382 7.43366 10.7209 7.13548 10.8948C6.8373 11.0686 6.45461 10.9679 6.28073 10.6697L4.87759 8.26351C4.69921 7.95762 4.17937 7.7721 3.6513 8.0739C3.12518 8.37459 3.03264 8.90462 3.20792 9.20519L6.36499 14.6191C7.70577 16.9183 11.0144 17.6645 13.8202 16.0609C16.6241 14.4585 17.6208 11.2572 16.2831 8.96332L14.1784 5.35406C14 5.04816 13.4802 4.86265 12.9521 5.16444C12.426 5.46513 12.3335 5.99516 12.5087 6.29573L13.9119 8.70191C13.9959 8.84592 14.0188 9.01751 13.9757 9.17853C13.9325 9.33956 13.8268 9.47667 13.6821 9.55939C12.3967 10.294 12.0028 11.7144 12.5655 12.6795C12.7394 12.9776 12.6386 13.3603 12.3405 13.5342C12.0423 13.7081 11.6596 13.6073 11.4857 13.3091C10.7251 12.0048 11.0324 10.4343 12.0149 9.32421C12.2895 9.01388 12.3835 8.56246 12.1748 8.20448L9.32421 3.31615Z" fill="#FDF7F4"/>
</svg>
