<svg width="20" height="21" viewBox="0 0 20 21" fill="none" xmlns="http://www.w3.org/2000/svg">
<path fill-rule="evenodd" clip-rule="evenodd" d="M9.9995 1.60083C7.81337 1.60083 6.04116 3.37304 6.04116 5.55916C6.04116 7.74529 7.81337 9.5175 9.9995 9.5175C12.1856 9.5175 13.9578 7.74529 13.9578 5.55916C13.9578 3.37304 12.1856 1.60083 9.9995 1.60083ZM7.29116 5.55916C7.29116 4.06339 8.50373 2.85083 9.9995 2.85083C11.4953 2.85083 12.7078 4.06339 12.7078 5.55916C12.7078 7.05493 11.4953 8.2675 9.9995 8.2675C8.50373 8.2675 7.29116 7.05493 7.29116 5.55916Z" fill="#272421"/>
<path fill-rule="evenodd" clip-rule="evenodd" d="M2.2725 5.40758C2.18878 5.07271 1.84945 4.86911 1.51458 4.95282C1.17971 5.03654 0.976106 5.37588 1.05982 5.71075L1.37813 6.98397C1.96543 9.33317 3.74605 11.1838 6.04116 11.8748L6.04116 15.6025C6.04114 16.3512 6.04112 16.9756 6.10776 17.4712C6.17809 17.9944 6.33282 18.4667 6.71238 18.8463C7.09194 19.2258 7.56427 19.3806 8.08743 19.4509C8.58308 19.5175 9.20743 19.5175 9.95617 19.5175H10.0428C10.7916 19.5175 11.4159 19.5175 11.9116 19.4509C12.4347 19.3806 12.9071 19.2258 13.2866 18.8463C13.6662 18.4667 13.8209 17.9944 13.8912 17.4712C13.9579 16.9756 13.9579 16.3512 13.9578 15.6025L13.9578 12.1083C14.7754 12.3521 15.4 13.0624 15.5042 13.9484L16.0454 18.5489C16.0858 18.8917 16.3964 19.1369 16.7392 19.0966C17.082 19.0562 17.3272 18.7456 17.2869 18.4028L16.7456 13.8023C16.542 12.0718 15.0754 10.7675 13.3328 10.7675H6.7366C4.70039 10.2895 3.09899 8.71352 2.59081 6.6808L2.2725 5.40758ZM7.29116 15.5592V12.0175H12.7078V15.5592C12.7078 16.3625 12.7065 16.9021 12.6524 17.3047C12.6007 17.6892 12.5113 17.8538 12.4027 17.9624C12.2941 18.071 12.1296 18.1604 11.745 18.2121C11.3425 18.2662 10.8028 18.2675 9.9995 18.2675C9.19615 18.2675 8.65652 18.2662 8.25399 18.2121C7.86944 18.1604 7.70486 18.071 7.59626 17.9624C7.48766 17.8538 7.39831 17.6892 7.34661 17.3047C7.29249 16.9021 7.29116 16.3625 7.29116 15.5592Z" fill="#272421"/>
</svg>
