<svg width="21" height="21" viewBox="0 0 21 21" fill="none" xmlns="http://www.w3.org/2000/svg">
<path d="M18.1453 8.8458C17.8508 8.53799 17.5461 8.2208 17.4313 7.94189C17.325 7.68643 17.3187 7.26299 17.3125 6.85283C17.3008 6.09033 17.2883 5.22627 16.6875 4.62549C16.0867 4.02471 15.2227 4.01221 14.4602 4.00049C14.05 3.99424 13.6266 3.98799 13.3711 3.88174C13.093 3.76689 12.775 3.46221 12.4672 3.16768C11.9281 2.64971 11.3156 2.06299 10.5 2.06299C9.68438 2.06299 9.07266 2.64971 8.53281 3.16768C8.225 3.46221 7.90781 3.76689 7.62891 3.88174C7.375 3.98799 6.95 3.99424 6.53984 4.00049C5.77734 4.01221 4.91328 4.02471 4.3125 4.62549C3.71172 5.22627 3.70312 6.09033 3.6875 6.85283C3.68125 7.26299 3.675 7.68643 3.56875 7.94189C3.45391 8.22002 3.14922 8.53799 2.85469 8.8458C2.33672 9.38486 1.75 9.99736 1.75 10.813C1.75 11.6286 2.33672 12.2403 2.85469 12.7802C3.14922 13.088 3.45391 13.4052 3.56875 13.6841C3.675 13.9396 3.68125 14.363 3.6875 14.7731C3.69922 15.5356 3.71172 16.3997 4.3125 17.0005C4.91328 17.6013 5.77734 17.6138 6.53984 17.6255C6.95 17.6317 7.37344 17.638 7.62891 17.7442C7.90703 17.8591 8.225 18.1638 8.53281 18.4583C9.07187 18.9763 9.68438 19.563 10.5 19.563C11.3156 19.563 11.9273 18.9763 12.4672 18.4583C12.775 18.1638 13.0922 17.8591 13.3711 17.7442C13.6266 17.638 14.05 17.6317 14.4602 17.6255C15.2227 17.6138 16.0867 17.6013 16.6875 17.0005C17.2883 16.3997 17.3008 15.5356 17.3125 14.7731C17.3187 14.363 17.325 13.9396 17.4313 13.6841C17.5461 13.406 17.8508 13.088 18.1453 12.7802C18.6633 12.2411 19.25 11.6286 19.25 10.813C19.25 9.99736 18.6633 9.38564 18.1453 8.8458ZM14.0672 9.38018L9.69219 13.7552C9.63414 13.8133 9.56521 13.8594 9.48934 13.8908C9.41346 13.9223 9.33213 13.9385 9.25 13.9385C9.16787 13.9385 9.08654 13.9223 9.01066 13.8908C8.93479 13.8594 8.86586 13.8133 8.80781 13.7552L6.93281 11.8802C6.81554 11.7629 6.74965 11.6038 6.74965 11.438C6.74965 11.2721 6.81554 11.1131 6.93281 10.9958C7.05009 10.8785 7.20915 10.8126 7.375 10.8126C7.54085 10.8126 7.69991 10.8785 7.81719 10.9958L9.25 12.4294L13.1828 8.4958C13.2409 8.43773 13.3098 8.39167 13.3857 8.36024C13.4616 8.32882 13.5429 8.31264 13.625 8.31264C13.7071 8.31264 13.7884 8.32882 13.8643 8.36024C13.9402 8.39167 14.0091 8.43773 14.0672 8.4958C14.1253 8.55387 14.1713 8.62281 14.2027 8.69868C14.2342 8.77455 14.2503 8.85587 14.2503 8.93799C14.2503 9.02011 14.2342 9.10143 14.2027 9.1773C14.1713 9.25317 14.1253 9.32211 14.0672 9.38018Z" fill="#272421"/>
</svg>
