<svg width="32" height="33" viewBox="0 0 32 33" fill="none" xmlns="http://www.w3.org/2000/svg">
<path d="M14.5 10.6184H15V15.6184H14.5C13.837 15.6184 13.2011 15.355 12.7322 14.8862C12.2634 14.4173 12 13.7814 12 13.1184C12 12.4554 12.2634 11.8195 12.7322 11.3506C13.2011 10.8818 13.837 10.6184 14.5 10.6184ZM18.5 17.6184H17V22.6184H18.5C19.163 22.6184 19.7989 22.355 20.2678 21.8862C20.7366 21.4173 21 20.7815 21 20.1184C21 19.4554 20.7366 18.8195 20.2678 18.3506C19.7989 17.8818 19.163 17.6184 18.5 17.6184ZM29 16.6184C29 19.1896 28.2376 21.703 26.8091 23.8408C25.3807 25.9787 23.3503 27.6449 20.9749 28.6288C18.5995 29.6128 15.9856 29.8702 13.4638 29.3686C10.9421 28.867 8.6257 27.6289 6.80762 25.8108C4.98953 23.9927 3.75141 21.6763 3.2498 19.1546C2.74819 16.6328 3.00563 14.019 3.98957 11.6435C4.97351 9.26808 6.63975 7.23776 8.77759 5.8093C10.9154 4.38084 13.4288 3.61841 16 3.61841C19.4467 3.62205 22.7512 4.99286 25.1884 7.43004C27.6256 9.86722 28.9964 13.1717 29 16.6184ZM23 20.1184C23 18.9249 22.5259 17.7803 21.682 16.9364C20.8381 16.0925 19.6935 15.6184 18.5 15.6184H17V10.6184H17.5C18.163 10.6184 18.7989 10.8818 19.2678 11.3506C19.7366 11.8195 20 12.4554 20 13.1184C20 13.3836 20.1054 13.638 20.2929 13.8255C20.4804 14.0131 20.7348 14.1184 21 14.1184C21.2652 14.1184 21.5196 14.0131 21.7071 13.8255C21.8946 13.638 22 13.3836 22 13.1184C22 11.9249 21.5259 10.7803 20.682 9.93643C19.8381 9.09251 18.6935 8.61841 17.5 8.61841H17V7.61841C17 7.35319 16.8946 7.09884 16.7071 6.9113C16.5196 6.72377 16.2652 6.61841 16 6.61841C15.7348 6.61841 15.4804 6.72377 15.2929 6.9113C15.1054 7.09884 15 7.35319 15 7.61841V8.61841H14.5C13.3065 8.61841 12.1619 9.09251 11.318 9.93643C10.4741 10.7803 10 11.9249 10 13.1184C10 14.3119 10.4741 15.4565 11.318 16.3004C12.1619 17.1443 13.3065 17.6184 14.5 17.6184H15V22.6184H14C13.337 22.6184 12.7011 22.355 12.2322 21.8862C11.7634 21.4173 11.5 20.7815 11.5 20.1184C11.5 19.8532 11.3946 19.5988 11.2071 19.4113C11.0196 19.2238 10.7652 19.1184 10.5 19.1184C10.2348 19.1184 9.98044 19.2238 9.7929 19.4113C9.60536 19.5988 9.50001 19.8532 9.50001 20.1184C9.50001 21.3119 9.97411 22.4565 10.818 23.3004C11.6619 24.1443 12.8065 24.6184 14 24.6184H15V25.6184C15 25.8836 15.1054 26.138 15.2929 26.3255C15.4804 26.5131 15.7348 26.6184 16 26.6184C16.2652 26.6184 16.5196 26.5131 16.7071 26.3255C16.8946 26.138 17 25.8836 17 25.6184V24.6184H18.5C19.6935 24.6184 20.8381 24.1443 21.682 23.3004C22.5259 22.4565 23 21.3119 23 20.1184Z" fill="#FDF7F4"/>
</svg>
