<svg width="136" height="34" viewBox="0 0 136 34" fill="none" xmlns="http://www.w3.org/2000/svg">
<path d="M79.5459 10.4595C78.5067 9.58222 76.9411 8.92092 74.7548 8.43506C72.4604 7.9357 71.4752 7.44984 71.0433 7.12593C70.5035 6.72105 70.2336 6.16771 70.2336 5.43892C70.2336 4.71013 70.517 4.18379 71.0838 3.73842C71.6911 3.25256 72.5144 3.00963 73.5536 3.00963C75.3081 3.00963 76.9681 3.63045 78.4662 4.87209L78.9386 5.24998L80.8415 2.72622L80.4096 2.37531C78.4527 0.796272 76.1584 0 73.6076 0C71.7316 0 70.1526 0.526347 68.9245 1.53855C67.6558 2.59125 67.0215 3.94086 67.0215 5.57389C67.0215 7.20692 67.5748 8.52953 68.668 9.44726C69.7072 10.3245 71.3268 10.9858 73.6346 11.4852C75.821 11.944 76.7522 12.4164 77.1571 12.7268C77.6834 13.1317 77.9263 13.685 77.9263 14.3868C77.9263 15.1426 77.6294 15.7499 77.0221 16.2223C76.3743 16.7217 75.5105 16.9781 74.4174 16.9781C73.2702 16.9781 72.2175 16.7756 71.3133 16.3978C70.3955 16.0064 69.4643 15.3855 68.5331 14.5353L68.0877 14.1304L66.0498 16.5327L66.4682 16.9106C68.749 18.9485 71.3942 19.9877 74.3364 19.9877C76.2933 19.9877 77.9263 19.4614 79.195 18.4357C80.5041 17.3695 81.1654 15.9659 81.1654 14.2384C81.1654 12.6593 80.6121 11.3907 79.5324 10.4595H79.5459Z" fill="#C3AB9D"/>
<path d="M111.815 0.0269941H108.698L101.72 19.8662H105.121L107.105 14.2384H113.394L115.378 19.8662H118.779L111.802 0.0269941H111.815ZM112.274 11.0128H108.239L110.25 5.27697L112.26 11.0128H112.274Z" fill="#C3AB9D"/>
<path d="M29.4753 0.229434C24.0634 0.229434 19.6637 4.62915 19.6637 10.0411C19.6637 15.453 23.753 19.5693 28.9895 19.8392H29.9882C35.1977 19.5693 39.287 15.2641 39.287 10.0411C39.287 4.8181 34.8873 0.229434 29.4753 0.229434ZM36.1019 10.0411C36.1019 10.1626 36.1019 10.284 36.1019 10.392V10.473C35.8725 13.9415 32.9708 16.6677 29.4888 16.6677C26.0068 16.6677 23.1052 13.9415 22.8758 10.4595V10.392C22.8758 10.2705 22.8623 10.1491 22.8623 10.0276C22.8623 6.37015 25.8314 3.40101 29.4888 3.40101C33.1463 3.40101 36.1154 6.37015 36.1154 10.0276L36.1019 10.0411Z" fill="#272421"/>
<path d="M131.047 11.6741C133.651 11.0263 135.541 8.66448 135.541 5.93827C135.541 2.67222 132.882 0.0269877 129.63 0.0269877H125.662L127.605 3.23905H129.63C131.114 3.23905 132.329 4.4537 132.329 5.93827C132.329 7.42284 131.114 8.63749 129.63 8.63749H129.225L124.042 0.0134888H122.868V4.27826L125.486 8.62399H122.868V19.8257H126.08V11.8361H127.416L132.248 19.8527H136L131.074 11.6606L131.047 11.6741Z" fill="#C3AB9D"/>
<path d="M93.3795 4.7776H90.1674V19.8662H93.3795V4.7776Z" fill="#C3AB9D"/>
<path d="M84.3237 0.0269941V3.23906H99.2234V0.0269941H84.3237Z" fill="#C3AB9D"/>
<path d="M59.1126 0.0134888L52.8639 9.87913L46.6017 0.0134888H43.754V20.0012H46.7636V5.95177L52.513 14.8187H53.1608L58.8966 5.92477V20.0012H61.9737V0.0134888H59.1126Z" fill="#272421"/>
<path d="M5.83031 0.0269941H4.75062V3.23906H5.83031C9.52824 3.23906 12.5379 6.24869 12.5379 9.94662C12.5379 13.6445 9.52824 16.6542 5.83031 16.6542H3.21207V0.0404828H0V19.8797H5.83031C11.2962 19.8797 15.7499 15.426 15.7499 9.96012C15.7499 4.4942 11.2962 0.0404828 5.83031 0.0404828V0.0269941Z" fill="#272421"/>
<path d="M5.70781 26.9856H3.69609V33.0012H2.53398V26.9856H0.527145V25.9992H5.70781V26.9856Z" fill="#272421"/>
<path d="M13.9434 33.0012H12.5859L11.4678 31.1262C11.3669 30.9537 11.2676 30.8072 11.1699 30.6867C11.0755 30.563 10.9779 30.4621 10.877 30.384C10.7793 30.3059 10.6719 30.2489 10.5547 30.2131C10.4375 30.1773 10.3057 30.1594 10.1592 30.1594H9.69043V33.0012H8.5332V25.9992H10.8379C11.1667 25.9992 11.4694 26.0383 11.7461 26.1164C12.0228 26.1945 12.2637 26.3134 12.4687 26.4729C12.6738 26.6291 12.8333 26.8261 12.9473 27.0637C13.0645 27.2981 13.123 27.5731 13.123 27.8889C13.123 28.1363 13.0856 28.3641 13.0107 28.5725C12.9391 28.7776 12.835 28.9615 12.6982 29.1242C12.5648 29.2837 12.402 29.4205 12.21 29.5344C12.0212 29.6483 11.8079 29.7362 11.5703 29.7981V29.8176C11.6973 29.8892 11.8079 29.969 11.9023 30.0569C11.9967 30.1415 12.0863 30.2294 12.1709 30.3205C12.2555 30.4117 12.3385 30.5158 12.4199 30.633C12.5046 30.747 12.5973 30.8804 12.6982 31.0334L13.9434 33.0012ZM9.69043 26.9416V29.217H10.6572C10.8363 29.217 11.0006 29.1893 11.1504 29.134C11.3034 29.0787 11.4352 28.9989 11.5459 28.8947C11.6566 28.7906 11.7428 28.6636 11.8047 28.5139C11.8665 28.3641 11.8975 28.1965 11.8975 28.011C11.8975 27.6757 11.7917 27.4136 11.5801 27.2248C11.3685 27.036 11.0641 26.9416 10.667 26.9416H9.69043Z" fill="#272421"/>
<path d="M22.3156 33.0012H21.0412L20.4113 31.219H17.6574L17.052 33.0012H15.7824L18.4045 25.9992H19.7131L22.3156 33.0012ZM20.1037 30.2717L19.132 27.4787C19.1027 27.3876 19.0718 27.2411 19.0393 27.0393H19.0197C18.9904 27.2248 18.9579 27.3713 18.9221 27.4787L17.9602 30.2717H20.1037Z" fill="#272421"/>
<path d="M26.2738 33.0012H25.0775V25.9992H26.2738V33.0012Z" fill="#272421"/>
<path d="M35.7398 33.0012H34.4703L31.1256 27.8547C31.0409 27.7245 30.971 27.5894 30.9156 27.4494H30.8863C30.9124 27.5992 30.9254 27.9198 30.9254 28.4113V33.0012H29.8023V25.9992H31.1549L34.3873 31.0237C34.524 31.232 34.6119 31.3752 34.651 31.4533H34.6705C34.638 31.2678 34.6217 30.9537 34.6217 30.511V25.9992H35.7398V33.0012Z" fill="#272421"/>
<path d="M40.4695 33.0012H39.2732V25.9992H40.4695V33.0012Z" fill="#272421"/>
<path d="M49.9355 33.0012H48.666L45.3213 27.8547C45.2366 27.7245 45.1667 27.5894 45.1113 27.4494H45.082C45.1081 27.5992 45.1211 27.9198 45.1211 28.4113V33.0012H43.998V25.9992H45.3506L48.583 31.0237C48.7197 31.232 48.8076 31.3752 48.8467 31.4533H48.8662C48.8337 31.2678 48.8174 30.9537 48.8174 30.511V25.9992H49.9355V33.0012Z" fill="#272421"/>
<path d="M58.9377 32.5227C58.2085 32.9198 57.3964 33.1184 56.5012 33.1184C55.466 33.1184 54.6278 32.7961 53.9865 32.1516C53.3452 31.507 53.0246 30.6542 53.0246 29.593C53.0246 28.509 53.3745 27.6203 54.0744 26.927C54.7775 26.2304 55.6695 25.882 56.7502 25.882C57.5282 25.882 58.1825 25.996 58.7131 26.2238V27.4201C58.176 27.0621 57.5363 26.883 56.7941 26.883C56.0487 26.883 55.4367 27.1288 54.9582 27.6203C54.4829 28.1119 54.2453 28.7483 54.2453 29.5295C54.2453 30.3335 54.4504 30.9667 54.8605 31.4289C55.2707 31.8879 55.8273 32.1174 56.5305 32.1174C57.0122 32.1174 57.4289 32.0246 57.7805 31.8391V30.174H56.3059V29.1975H58.9377V32.5227Z" fill="#272421"/>
<path d="M70.731 33.0012H66.8004V25.9992H70.5748V26.9856H67.9625V28.968H70.3697V29.9494H67.9625V32.0197H70.731V33.0012Z" fill="#272421"/>
<path d="M78.659 32.7082C78.1316 32.9817 77.4757 33.1184 76.6912 33.1184C75.6756 33.1184 74.8618 32.7977 74.2498 32.1565C73.6378 31.5152 73.3318 30.6737 73.3318 29.632C73.3318 28.5123 73.6753 27.6073 74.3621 26.9172C75.0522 26.2271 75.923 25.882 76.9744 25.882C77.6515 25.882 78.213 25.9781 78.659 26.1701V27.3225C78.187 27.0425 77.6661 26.9026 77.0965 26.9026C76.338 26.9026 75.7228 27.1451 75.2508 27.6301C74.782 28.1151 74.5477 28.7629 74.5477 29.5735C74.5477 30.3449 74.7674 30.9602 75.2068 31.4192C75.6463 31.8749 76.2241 32.1028 76.9402 32.1028C77.601 32.1028 78.174 31.9465 78.659 31.634V32.7082Z" fill="#272421"/>
<path d="M84.5459 33.1184C83.5368 33.1184 82.7279 32.7912 82.1191 32.1369C81.5137 31.4826 81.2109 30.6314 81.2109 29.5832C81.2109 28.4569 81.5202 27.5585 82.1387 26.8879C82.7572 26.2173 83.597 25.882 84.6582 25.882C85.6413 25.882 86.4323 26.2076 87.0312 26.8586C87.6335 27.5097 87.9346 28.3609 87.9346 29.4123C87.9346 30.5549 87.627 31.4582 87.0117 32.1223C86.3965 32.7863 85.5745 33.1184 84.5459 33.1184ZM84.5996 26.9026C83.9583 26.9026 83.4359 27.1418 83.0322 27.6203C82.6318 28.0988 82.4316 28.7287 82.4316 29.51C82.4316 30.288 82.627 30.9146 83.0176 31.3899C83.4082 31.8651 83.9193 32.1028 84.5508 32.1028C85.2214 32.1028 85.7503 31.8765 86.1377 31.424C86.5251 30.9716 86.7188 30.3384 86.7188 29.5246C86.7188 28.688 86.5299 28.0419 86.1523 27.5862C85.778 27.1304 85.2604 26.9026 84.5996 26.9026Z" fill="#272421"/>
<path d="M90.6965 32.7229V31.5266C90.8039 31.6242 90.9309 31.7121 91.0773 31.7903C91.2271 31.8684 91.385 31.9351 91.551 31.9904C91.717 32.0425 91.883 32.0832 92.049 32.1125C92.215 32.1418 92.368 32.1565 92.508 32.1565C92.9963 32.1565 93.3592 32.0751 93.5969 31.9123C93.8378 31.7496 93.9582 31.5136 93.9582 31.2043C93.9582 31.0383 93.9175 30.8951 93.8361 30.7746C93.758 30.6509 93.6473 30.5386 93.5041 30.4377C93.3609 30.3368 93.1916 30.2408 92.9963 30.1496C92.8042 30.0552 92.5975 29.9576 92.3762 29.8567C92.1385 29.7297 91.9172 29.6011 91.7121 29.4709C91.507 29.3407 91.328 29.1975 91.175 29.0412C91.0253 28.8817 90.9064 28.7027 90.8186 28.5041C90.7339 28.3056 90.6916 28.0728 90.6916 27.8059C90.6916 27.4771 90.7648 27.1923 90.9113 26.9514C91.0611 26.7072 91.2564 26.507 91.4973 26.3508C91.7414 26.1913 92.0181 26.0741 92.3273 25.9992C92.6366 25.9211 92.9523 25.882 93.2746 25.882C94.007 25.882 94.5409 25.9651 94.8762 26.1311V27.2785C94.479 26.9921 93.968 26.8488 93.343 26.8488C93.1704 26.8488 92.9979 26.8651 92.8254 26.8977C92.6561 26.9302 92.5031 26.9839 92.3664 27.0588C92.2329 27.1337 92.1239 27.2297 92.0393 27.3469C91.9546 27.4641 91.9123 27.6057 91.9123 27.7717C91.9123 27.9279 91.9449 28.063 92.01 28.177C92.0751 28.2909 92.1695 28.3951 92.2932 28.4895C92.4201 28.5839 92.5731 28.6766 92.7521 28.7678C92.9344 28.8557 93.1444 28.9517 93.382 29.0559C93.6262 29.1828 93.8557 29.3163 94.0705 29.4563C94.2886 29.5962 94.479 29.7509 94.6418 29.9201C94.8078 30.0894 94.938 30.2782 95.0324 30.4865C95.1301 30.6916 95.1789 30.926 95.1789 31.1897C95.1789 31.5445 95.1073 31.844 94.9641 32.0881C94.8208 32.3322 94.6271 32.5308 94.383 32.6838C94.1421 32.8368 93.8638 32.9475 93.548 33.0158C93.2323 33.0842 92.8986 33.1184 92.5471 33.1184C92.4299 33.1184 92.285 33.1086 92.1125 33.0891C91.9432 33.0728 91.7691 33.0468 91.59 33.011C91.411 32.9784 91.2417 32.9377 91.0822 32.8889C90.9227 32.8401 90.7941 32.7847 90.6965 32.7229Z" fill="#272421"/>
<path d="M103.146 25.9992L100.851 30.4572V33.0012H99.6889V30.4817L97.4525 25.9992H98.7758L100.153 29.0022C100.169 29.038 100.218 29.1731 100.299 29.4074H100.314C100.343 29.3033 100.397 29.1682 100.475 29.0022L101.915 25.9992H103.146Z" fill="#272421"/>
<path d="M105.4 32.7229V31.5266C105.507 31.6242 105.634 31.7121 105.781 31.7903C105.931 31.8684 106.088 31.9351 106.254 31.9904C106.421 32.0425 106.587 32.0832 106.753 32.1125C106.919 32.1418 107.072 32.1565 107.212 32.1565C107.7 32.1565 108.063 32.0751 108.3 31.9123C108.541 31.7496 108.662 31.5136 108.662 31.2043C108.662 31.0383 108.621 30.8951 108.54 30.7746C108.462 30.6509 108.351 30.5386 108.208 30.4377C108.064 30.3368 107.895 30.2408 107.7 30.1496C107.508 30.0552 107.301 29.9576 107.08 29.8567C106.842 29.7297 106.621 29.6011 106.416 29.4709C106.211 29.3407 106.032 29.1975 105.879 29.0412C105.729 28.8817 105.61 28.7027 105.522 28.5041C105.437 28.3056 105.395 28.0728 105.395 27.8059C105.395 27.4771 105.468 27.1923 105.615 26.9514C105.765 26.7072 105.96 26.507 106.201 26.3508C106.445 26.1913 106.722 26.0741 107.031 25.9992C107.34 25.9211 107.656 25.882 107.978 25.882C108.711 25.882 109.244 25.9651 109.58 26.1311V27.2785C109.183 26.9921 108.671 26.8488 108.046 26.8488C107.874 26.8488 107.701 26.8651 107.529 26.8977C107.36 26.9302 107.207 26.9839 107.07 27.0588C106.936 27.1337 106.827 27.2297 106.743 27.3469C106.658 27.4641 106.616 27.6057 106.616 27.7717C106.616 27.9279 106.648 28.063 106.713 28.177C106.779 28.2909 106.873 28.3951 106.997 28.4895C107.124 28.5839 107.277 28.6766 107.456 28.7678C107.638 28.8557 107.848 28.9517 108.086 29.0559C108.33 29.1828 108.559 29.3163 108.774 29.4563C108.992 29.5962 109.183 29.7509 109.345 29.9201C109.511 30.0894 109.642 30.2782 109.736 30.4865C109.834 30.6916 109.882 30.926 109.882 31.1897C109.882 31.5445 109.811 31.844 109.668 32.0881C109.524 32.3322 109.331 32.5308 109.087 32.6838C108.846 32.8368 108.567 32.9475 108.252 33.0158C107.936 33.0842 107.602 33.1184 107.251 33.1184C107.133 33.1184 106.989 33.1086 106.816 33.0891C106.647 33.0728 106.473 33.0468 106.294 33.011C106.115 32.9784 105.945 32.9377 105.786 32.8889C105.626 32.8401 105.498 32.7847 105.4 32.7229Z" fill="#272421"/>
<path d="M117.464 26.9856H115.452V33.0012H114.29V26.9856H112.283V25.9992H117.464V26.9856Z" fill="#272421"/>
<path d="M124.22 33.0012H120.289V25.9992H124.063V26.9856H121.451V28.968H123.858V29.9494H121.451V32.0197H124.22V33.0012Z" fill="#272421"/>
<path d="M134.784 33.0012H133.632V28.4699C133.632 28.0988 133.655 27.6447 133.7 27.1076H133.681C133.609 27.4136 133.546 27.6334 133.49 27.7668L131.401 33.0012H130.6L128.505 27.8059C128.446 27.6529 128.385 27.4201 128.32 27.1076H128.3C128.326 27.3876 128.339 27.8449 128.339 28.4797V33.0012H127.265V25.9992H128.901L130.741 30.6623C130.881 31.0204 130.973 31.2873 131.015 31.4631H131.039C131.16 31.0953 131.257 30.8218 131.332 30.6428L133.207 25.9992H134.784V33.0012Z" fill="#272421"/>
</svg>
