<svg width="107" height="26" viewBox="0 0 107 26" fill="none" xmlns="http://www.w3.org/2000/svg">
<path d="M62.4991 8.15225C61.6891 7.46851 60.4689 6.95308 58.7649 6.5744C56.9766 6.18519 56.2087 5.8065 55.8721 5.55405C55.4514 5.23848 55.241 4.8072 55.241 4.23917C55.241 3.67114 55.4619 3.2609 55.9037 2.91378C56.377 2.53509 57.0187 2.34575 57.8287 2.34575C59.1961 2.34575 60.49 2.82962 61.6576 3.79737L62.0258 4.0919L63.5089 2.12485L63.1723 1.85135C61.6471 0.620625 59.8588 0 57.8707 0C56.4086 0 55.1779 0.410242 54.2206 1.19917C53.2318 2.01965 52.7374 3.07156 52.7374 4.34437C52.7374 5.61717 53.1687 6.64803 54.0208 7.36332C54.8307 8.04706 56.093 8.5625 57.8918 8.9517C59.5959 9.30935 60.3217 9.67751 60.6372 9.91945C61.0475 10.235 61.2368 10.6663 61.2368 11.2133C61.2368 11.8024 61.0054 12.2757 60.5321 12.6439C60.0271 13.0331 59.3539 13.2329 58.5019 13.2329C57.6078 13.2329 56.7873 13.0752 56.0825 12.7806C55.3672 12.4756 54.6414 11.9917 53.9156 11.329L53.5685 11.0134L51.9801 12.8858L52.3062 13.1803C54.0839 14.7687 56.1456 15.5787 58.4388 15.5787C59.964 15.5787 61.2368 15.1684 62.2256 14.369C63.246 13.538 63.7614 12.444 63.7614 11.0976C63.7614 9.86686 63.3301 8.87806 62.4886 8.15225H62.4991Z" fill="#EFD1C0"/>
<path d="M87.6502 0.0210396H85.2203L79.782 15.484H82.4327L83.979 11.0976H88.8809L90.4272 15.484H93.078L87.6397 0.0210396H87.6502ZM88.0078 8.58353H84.8626L86.43 4.11294L87.9973 8.58353H88.0078Z" fill="#EFD1C0"/>
<path d="M23.4735 0.178824C19.2553 0.178824 15.8261 3.60802 15.8261 7.82616C15.8261 12.0443 19.0134 15.2526 23.0948 15.463H23.8732C27.9335 15.2526 31.1208 11.897 31.1208 7.82616C31.1208 3.75529 27.6916 0.178824 23.4735 0.178824ZM28.6383 7.82616C28.6383 7.92083 28.6383 8.0155 28.6383 8.09965V8.16277C28.4595 10.8662 26.1979 12.991 23.484 12.991C20.7701 12.991 18.5085 10.8662 18.3297 8.15224V8.09965C18.3297 8.00498 18.3192 7.91031 18.3192 7.81564C18.3192 4.96498 20.6333 2.65079 23.484 2.65079C26.3347 2.65079 28.6488 4.96498 28.6488 7.81564L28.6383 7.82616Z" fill="#98867B"/>
<path d="M102.64 9.09896C104.67 8.59404 106.142 6.75321 106.142 4.62837C106.142 2.08276 104.07 0.0210346 101.535 0.0210346H98.4424L99.9572 2.52456H101.535C102.692 2.52456 103.639 3.47127 103.639 4.62837C103.639 5.78546 102.692 6.73217 101.535 6.73217H101.219L97.1801 0.0105133H96.265V3.33453L98.3057 6.72165H96.265V15.4525H98.7685V9.22519H99.8099L103.576 15.4735H106.5L102.661 9.08844L102.64 9.09896Z" fill="#EFD1C0"/>
<path d="M73.2812 3.72373H70.7777V15.484H73.2812V3.72373Z" fill="#EFD1C0"/>
<path d="M66.223 0.0210396V2.52457H77.836V0.0210396H66.223Z" fill="#EFD1C0"/>
<path d="M46.5731 0.0105133L41.7028 7.69992L36.822 0.0105133H34.6025V15.5892H36.9482V4.63889L41.4293 11.5499H41.9342L46.4048 4.61785V15.5892H48.8032V0.0105133H46.5731Z" fill="#98867B"/>
<path d="M5.04422 0.0210396H4.2027V2.52457H5.04422C7.92644 2.52457 10.2722 4.87031 10.2722 7.75253C10.2722 10.6347 7.92644 12.9805 5.04422 12.9805H3.00353V0.0315528H0.5V15.4945H5.04422C9.30443 15.4945 12.7757 12.0233 12.7757 7.76305C12.7757 3.50284 9.30443 0.0315528 5.04422 0.0315528V0.0210396Z" fill="#98867B"/>
<path d="M4.94874 21.0329H3.38078V25.7216H2.47502V21.0329H0.910864V20.2642H4.94874V21.0329Z" fill="#98867B"/>
<path d="M11.3676 25.7216H10.3096L9.43813 24.2602C9.35948 24.1257 9.2821 24.0115 9.20598 23.9177C9.13241 23.8212 9.05629 23.7426 8.97764 23.6817C8.90153 23.6208 8.8178 23.5764 8.72646 23.5485C8.63512 23.5206 8.53237 23.5066 8.4182 23.5066H8.05285V25.7216H7.15089V20.2642H8.94719C9.20345 20.2642 9.4394 20.2946 9.65506 20.3555C9.87072 20.4164 10.0585 20.509 10.2183 20.6333C10.3781 20.7551 10.5025 20.9086 10.5913 21.0938C10.6826 21.2765 10.7283 21.4909 10.7283 21.737C10.7283 21.9298 10.6991 22.1074 10.6407 22.2698C10.5849 22.4296 10.5037 22.573 10.3972 22.6998C10.2932 22.8241 10.1663 22.9307 10.0166 23.0195C9.86945 23.1083 9.70327 23.1768 9.51805 23.225V23.2402C9.617 23.296 9.70327 23.3582 9.77684 23.4267C9.85042 23.4927 9.92019 23.5612 9.98616 23.6322C10.0521 23.7033 10.1168 23.7845 10.1803 23.8758C10.2462 23.9646 10.3185 24.0686 10.3972 24.1879L11.3676 25.7216ZM8.05285 20.9987V22.7721H8.80638C8.94593 22.7721 9.07405 22.7506 9.19076 22.7074C9.31001 22.6643 9.41276 22.6021 9.49903 22.521C9.58529 22.4398 9.65252 22.3408 9.70073 22.2241C9.74893 22.1074 9.77304 21.9767 9.77304 21.8321C9.77304 21.5708 9.69058 21.3665 9.52567 21.2194C9.36075 21.0722 9.12353 20.9987 8.81399 20.9987H8.05285Z" fill="#98867B"/>
<path d="M17.8931 25.7216H16.8998L16.4089 24.3325H14.2624L13.7905 25.7216H12.801L14.8447 20.2642H15.8646L17.8931 25.7216ZM16.1691 23.5942L15.4118 21.4173C15.3889 21.3462 15.3648 21.2321 15.3394 21.0748H15.3242C15.3014 21.2194 15.276 21.3336 15.2481 21.4173L14.4984 23.5942H16.1691Z" fill="#98867B"/>
<path d="M20.9782 25.7216H20.0458V20.2642H20.9782V25.7216Z" fill="#98867B"/>
<path d="M28.3561 25.7216H27.3666L24.7597 21.7103C24.6937 21.6088 24.6392 21.5036 24.596 21.3945H24.5732C24.5935 21.5112 24.6037 21.7611 24.6037 22.1442V25.7216H23.7283V20.2642H24.7825L27.3019 24.1802C27.4085 24.3426 27.477 24.4543 27.5074 24.5152H27.5227C27.4973 24.3705 27.4846 24.1257 27.4846 23.7806V20.2642H28.3561V25.7216Z" fill="#98867B"/>
<path d="M32.0425 25.7216H31.1101V20.2642H32.0425V25.7216Z" fill="#98867B"/>
<path d="M39.4204 25.7216H38.4309L35.824 21.7103C35.758 21.6088 35.7035 21.5036 35.6604 21.3945H35.6375C35.6578 21.5112 35.668 21.7611 35.668 22.1442V25.7216H34.7927V20.2642H35.8468L38.3662 24.1802C38.4728 24.3426 38.5413 24.4543 38.5718 24.5152H38.587C38.5616 24.3705 38.5489 24.1257 38.5489 23.7806V20.2642H39.4204V25.7216Z" fill="#98867B"/>
<path d="M46.4368 25.3486C45.8685 25.6581 45.2355 25.8129 44.5378 25.8129C43.7309 25.8129 43.0776 25.5617 42.5778 25.0594C42.078 24.557 41.8281 23.8923 41.8281 23.0652C41.8281 22.2203 42.1008 21.5277 42.6463 20.9872C43.1943 20.4443 43.8895 20.1728 44.7319 20.1728C45.3382 20.1728 45.8482 20.2616 46.2618 20.4392V21.3716C45.8431 21.0925 45.3446 20.953 44.7661 20.953C44.1851 20.953 43.7081 21.1445 43.3352 21.5277C42.9647 21.9108 42.7795 22.4068 42.7795 23.0157C42.7795 23.6424 42.9394 24.1358 43.259 24.4961C43.5787 24.8539 44.0126 25.0327 44.5606 25.0327C44.9361 25.0327 45.2609 24.9604 45.5349 24.8158V23.5181H44.3855V22.7569H46.4368V25.3486Z" fill="#98867B"/>
<path d="M55.6287 25.7216H52.5651V20.2642H55.5069V21.0329H53.4709V22.578H55.3471V23.343H53.4709V24.9566H55.6287V25.7216Z" fill="#98867B"/>
<path d="M61.8079 25.4932C61.3968 25.7063 60.8856 25.8129 60.2742 25.8129C59.4826 25.8129 58.8483 25.563 58.3713 25.0632C57.8943 24.5634 57.6558 23.9075 57.6558 23.0956C57.6558 22.2228 57.9235 21.5175 58.4588 20.9796C58.9967 20.4418 59.6754 20.1728 60.4949 20.1728C61.0226 20.1728 61.4603 20.2477 61.8079 20.3974V21.2955C61.44 21.0773 61.034 20.9682 60.59 20.9682C59.9989 20.9682 59.5193 21.1572 59.1515 21.5353C58.7861 21.9133 58.6034 22.4182 58.6034 23.0499C58.6034 23.6513 58.7747 24.1308 59.1172 24.4885C59.4597 24.8437 59.9101 25.0213 60.4682 25.0213C60.9833 25.0213 61.4298 24.8995 61.8079 24.656V25.4932Z" fill="#98867B"/>
<path d="M66.3962 25.8129C65.6097 25.8129 64.9792 25.5579 64.5048 25.048C64.0328 24.538 63.7969 23.8745 63.7969 23.0576C63.7969 22.1797 64.0379 21.4794 64.52 20.9568C65.002 20.4341 65.6566 20.1728 66.4837 20.1728C67.25 20.1728 67.8665 20.4265 68.3333 20.934C68.8027 21.4414 69.0374 22.1049 69.0374 22.9244C69.0374 23.8149 68.7976 24.519 68.3181 25.0365C67.8386 25.5541 67.1979 25.8129 66.3962 25.8129ZM66.4381 20.9682C65.9382 20.9682 65.531 21.1547 65.2164 21.5277C64.9044 21.9006 64.7483 22.3916 64.7483 23.0005C64.7483 23.6069 64.9006 24.0953 65.205 24.4657C65.5095 24.8361 65.9078 25.0213 66.4 25.0213C66.9227 25.0213 67.3349 24.845 67.6369 24.4923C67.9388 24.1397 68.0898 23.6462 68.0898 23.0119C68.0898 22.3598 67.9426 21.8562 67.6483 21.501C67.3565 21.1458 66.9531 20.9682 66.4381 20.9682Z" fill="#98867B"/>
<path d="M71.19 25.5046V24.5722C71.2738 24.6484 71.3727 24.7169 71.4869 24.7777C71.6036 24.8386 71.7267 24.8906 71.856 24.9338C71.9854 24.9744 72.1148 25.0061 72.2442 25.0289C72.3736 25.0518 72.4929 25.0632 72.602 25.0632C72.9825 25.0632 73.2654 24.9997 73.4507 24.8729C73.6384 24.746 73.7323 24.5621 73.7323 24.3211C73.7323 24.1917 73.7006 24.08 73.6371 23.9862C73.5762 23.8897 73.49 23.8022 73.3783 23.7236C73.2667 23.6449 73.1348 23.5701 72.9825 23.499C72.8329 23.4254 72.6717 23.3493 72.4992 23.2707C72.314 23.1717 72.1415 23.0715 71.9816 22.97C71.8218 22.8685 71.6823 22.7569 71.563 22.6351C71.4463 22.5108 71.3537 22.3713 71.2852 22.2165C71.2192 22.0617 71.1862 21.8803 71.1862 21.6723C71.1862 21.416 71.2433 21.194 71.3575 21.0063C71.4742 20.816 71.6264 20.6599 71.8142 20.5382C72.0045 20.4138 72.2201 20.3225 72.4612 20.2642C72.7022 20.2033 72.9483 20.1728 73.1995 20.1728C73.7703 20.1728 74.1864 20.2375 74.4478 20.3669V21.2613C74.1382 21.038 73.7399 20.9263 73.2528 20.9263C73.1183 20.9263 72.9838 20.939 72.8493 20.9644C72.7174 20.9898 72.5982 21.0316 72.4916 21.09C72.3876 21.1483 72.3026 21.2232 72.2366 21.3145C72.1707 21.4059 72.1377 21.5162 72.1377 21.6456C72.1377 21.7674 72.163 21.8727 72.2138 21.9615C72.2645 22.0503 72.3381 22.1315 72.4345 22.2051C72.5335 22.2787 72.6527 22.351 72.7923 22.422C72.9343 22.4905 73.098 22.5653 73.2832 22.6465C73.4735 22.7455 73.6524 22.8495 73.8198 22.9586C73.9898 23.0677 74.1382 23.1882 74.2651 23.3202C74.3945 23.4521 74.496 23.5992 74.5695 23.7616C74.6456 23.9215 74.6837 24.1041 74.6837 24.3096C74.6837 24.5862 74.6279 24.8196 74.5163 25.0099C74.4046 25.2002 74.2537 25.3549 74.0634 25.4742C73.8756 25.5934 73.6587 25.6797 73.4126 25.733C73.1665 25.7863 72.9064 25.8129 72.6324 25.8129C72.5411 25.8129 72.4282 25.8053 72.2937 25.7901C72.1618 25.7774 72.026 25.7571 71.8865 25.7292C71.7469 25.7038 71.615 25.6721 71.4907 25.634C71.3664 25.596 71.2662 25.5528 71.19 25.5046Z" fill="#98867B"/>
<path d="M80.8933 20.2642L79.1046 23.7388V25.7216H78.1988V23.7578L76.4558 20.2642H77.4872L78.5604 22.6047C78.5731 22.6326 78.6111 22.7379 78.6745 22.9206H78.686C78.7088 22.8394 78.7507 22.7341 78.8116 22.6047L79.9342 20.2642H80.8933Z" fill="#98867B"/>
<path d="M82.6502 25.5046V24.5722C82.7339 24.6484 82.8328 24.7169 82.947 24.7777C83.0637 24.8386 83.1868 24.8906 83.3162 24.9338C83.4456 24.9744 83.575 25.0061 83.7043 25.0289C83.8337 25.0518 83.953 25.0632 84.0621 25.0632C84.4427 25.0632 84.7256 24.9997 84.9108 24.8729C85.0985 24.746 85.1924 24.5621 85.1924 24.3211C85.1924 24.1917 85.1607 24.08 85.0972 23.9862C85.0364 23.8897 84.9501 23.8022 84.8385 23.7236C84.7268 23.6449 84.5949 23.5701 84.4427 23.499C84.293 23.4254 84.1319 23.3493 83.9593 23.2707C83.7741 23.1717 83.6016 23.0715 83.4417 22.97C83.2819 22.8685 83.1424 22.7569 83.0231 22.6351C82.9064 22.5108 82.8138 22.3713 82.7453 22.2165C82.6793 22.0617 82.6464 21.8803 82.6464 21.6723C82.6464 21.416 82.7034 21.194 82.8176 21.0063C82.9343 20.816 83.0866 20.6599 83.2743 20.5382C83.4646 20.4138 83.6802 20.3225 83.9213 20.2642C84.1623 20.2033 84.4084 20.1728 84.6596 20.1728C85.2304 20.1728 85.6465 20.2375 85.9079 20.3669V21.2613C85.5983 21.038 85.2 20.9263 84.7129 20.9263C84.5784 20.9263 84.4439 20.939 84.3095 20.9644C84.1775 20.9898 84.0583 21.0316 83.9517 21.09C83.8477 21.1483 83.7627 21.2232 83.6967 21.3145C83.6308 21.4059 83.5978 21.5162 83.5978 21.6456C83.5978 21.7674 83.6232 21.8727 83.6739 21.9615C83.7246 22.0503 83.7982 22.1315 83.8946 22.2051C83.9936 22.2787 84.1128 22.351 84.2524 22.422C84.3945 22.4905 84.5581 22.5653 84.7433 22.6465C84.9336 22.7455 85.1125 22.8495 85.2799 22.9586C85.4499 23.0677 85.5983 23.1882 85.7252 23.3202C85.8546 23.4521 85.9561 23.5992 86.0296 23.7616C86.1058 23.9215 86.1438 24.1041 86.1438 24.3096C86.1438 24.5862 86.088 24.8196 85.9764 25.0099C85.8647 25.2002 85.7138 25.3549 85.5235 25.4742C85.3357 25.5934 85.1188 25.6797 84.8727 25.733C84.6266 25.7863 84.3665 25.8129 84.0925 25.8129C84.0012 25.8129 83.8883 25.8053 83.7538 25.7901C83.6219 25.7774 83.4862 25.7571 83.3466 25.7292C83.2071 25.7038 83.0751 25.6721 82.9508 25.634C82.8265 25.596 82.7263 25.5528 82.6502 25.5046Z" fill="#98867B"/>
<path d="M92.0527 21.0329H90.4848V25.7216H89.579V21.0329H88.0149V20.2642H92.0527V21.0329Z" fill="#98867B"/>
<path d="M97.3185 25.7216H94.2549V20.2642H97.1967V21.0329H95.1607V22.578H97.0369V23.343H95.1607V24.9566H97.3185V25.7216Z" fill="#98867B"/>
<path d="M105.553 25.7216H104.655V22.1899C104.655 21.9006 104.672 21.5467 104.708 21.1281H104.693C104.637 21.3665 104.587 21.5378 104.544 21.6418L102.915 25.7216H102.291L100.659 21.6723C100.613 21.553 100.565 21.3716 100.514 21.1281H100.499C100.519 21.3462 100.529 21.7027 100.529 22.1975V25.7216H99.6919V20.2642H100.967L102.402 23.8986C102.511 24.1777 102.582 24.3858 102.615 24.5228H102.634C102.728 24.2361 102.804 24.0229 102.862 23.8834L104.323 20.2642H105.553V25.7216Z" fill="#98867B"/>
</svg>
