<svg width="20" height="21" viewBox="0 0 20 21" fill="none" xmlns="http://www.w3.org/2000/svg">
<path d="M18.5068 2.7903C18.4099 2.70669 18.2921 2.65107 18.166 2.62946C18.0399 2.60785 17.9103 2.62105 17.7911 2.66765L1.95831 8.86374C1.73393 8.951 1.54396 9.10878 1.41701 9.31334C1.29005 9.51791 1.23299 9.75817 1.2544 9.99797C1.27582 10.2378 1.37456 10.4641 1.53575 10.643C1.69694 10.8218 1.91186 10.9434 2.14816 10.9895L6.2505 11.795V16.3692C6.24969 16.6184 6.32374 16.862 6.46303 17.0686C6.60233 17.2752 6.80046 17.4352 7.03175 17.5278C7.26268 17.6221 7.51664 17.6447 7.76061 17.5928C8.00458 17.5408 8.22727 17.4166 8.39972 17.2364L10.3778 15.1848L13.5161 17.9317C13.7425 18.1325 14.0346 18.2437 14.3372 18.2442C14.4698 18.2441 14.6016 18.2233 14.7278 18.1825C14.9341 18.1171 15.1195 17.9987 15.2658 17.8393C15.412 17.6799 15.514 17.485 15.5614 17.2739L18.7325 3.47859C18.7609 3.35417 18.7549 3.22438 18.7151 3.10313C18.6753 2.98188 18.6033 2.87374 18.5068 2.7903ZM14.3388 16.9942L7.87941 11.3301L17.1763 4.66687L14.3388 16.9942Z" fill="#FDF4FB"/>
</svg>
