<svg width="18" height="16" viewBox="0 0 18 16" fill="none" xmlns="http://www.w3.org/2000/svg">
<path d="M17.1912 3.81138L14.8553 6.14731C14.3834 11.6176 9.77009 15.8692 4.249 15.8692C3.11463 15.8692 2.17947 15.6895 1.46931 15.3348C0.896657 15.0481 0.662282 14.7411 0.603689 14.6536C0.551442 14.5752 0.517578 14.4861 0.504626 14.3928C0.491674 14.2995 0.49997 14.2045 0.528893 14.1149C0.557816 14.0253 0.606618 13.9433 0.671654 13.8752C0.73669 13.8071 0.816278 13.7546 0.90447 13.7215C0.924782 13.7137 2.79822 12.9942 3.98806 11.6247C3.32821 11.0821 2.75219 10.445 2.27869 9.73403C1.30994 8.29575 0.225564 5.79731 0.559939 2.06372C0.570537 1.94508 0.614815 1.83195 0.687558 1.73763C0.760301 1.64332 0.858479 1.57175 0.970531 1.53136C1.08258 1.49097 1.20384 1.48345 1.32003 1.50966C1.43622 1.53588 1.54249 1.59475 1.62634 1.67935C1.65369 1.70669 4.22635 4.26528 7.37166 5.09497V4.61919C7.37046 4.12028 7.4691 3.62617 7.66177 3.16596C7.85444 2.70575 8.13725 2.28875 8.49353 1.9395C8.83955 1.59398 9.25126 1.32125 9.70439 1.13743C10.1575 0.9536 10.6429 0.862394 11.1318 0.869189C11.7877 0.875658 12.4308 1.05173 12.9985 1.38029C13.5662 1.70884 14.0393 2.1787 14.3717 2.74419H16.749C16.8727 2.74409 16.9936 2.78069 17.0965 2.84936C17.1994 2.91803 17.2795 3.01568 17.3269 3.12994C17.3742 3.24421 17.3866 3.36995 17.3625 3.49126C17.3383 3.61256 17.2787 3.72397 17.1912 3.81138Z" fill="#FDF4FB"/>
</svg>
