<svg width="18" height="17" viewBox="0 0 18 17" fill="none" xmlns="http://www.w3.org/2000/svg">
<path d="M17.125 4.9942V8.1192C17.125 8.28496 17.0592 8.44393 16.9419 8.56114C16.8247 8.67835 16.6658 8.7442 16.5 8.7442C15.1944 8.74723 13.9075 8.4333 12.75 7.82936V10.9317C12.75 12.5064 12.1244 14.0167 11.0109 15.1301C9.89745 16.2436 8.38722 16.8692 6.8125 16.8692C5.23778 16.8692 3.72755 16.2436 2.61405 15.1301C1.50056 14.0167 0.875 12.5064 0.875 10.9317C0.875 8.04889 2.97734 5.50045 5.76562 5.00358C5.85558 4.98759 5.94794 4.99152 6.03621 5.01508C6.12447 5.03864 6.2065 5.08127 6.27652 5.13996C6.34653 5.19866 6.40283 5.27199 6.44144 5.35478C6.48005 5.43758 6.50004 5.52784 6.5 5.6192V8.95436C6.50004 9.07264 6.46651 9.18851 6.40331 9.2885C6.34011 9.38849 6.24983 9.46849 6.14297 9.5192C5.89034 9.63901 5.67449 9.82441 5.51793 10.0561C5.36137 10.2877 5.26983 10.5571 5.25288 10.8362C5.23592 11.1153 5.29416 11.3938 5.42152 11.6427C5.54888 11.8916 5.74069 12.1018 5.97695 12.2513C6.21322 12.4008 6.48527 12.4842 6.76474 12.4928C7.0442 12.5013 7.32084 12.4347 7.5658 12.2999C7.81076 12.1651 8.01506 11.9671 8.15739 11.7264C8.29972 11.4857 8.37487 11.2113 8.375 10.9317V0.619202C8.375 0.453441 8.44085 0.29447 8.55806 0.17726C8.67527 0.0600497 8.83424 -0.00579834 9 -0.00579834H12.125C12.2908 -0.00579834 12.4497 0.0600497 12.5669 0.17726C12.6842 0.29447 12.75 0.453441 12.75 0.619202C12.751 1.61345 13.1465 2.56667 13.8495 3.26971C14.5525 3.97275 15.5058 4.36817 16.5 4.3692C16.6658 4.3692 16.8247 4.43505 16.9419 4.55226C17.0592 4.66947 17.125 4.82844 17.125 4.9942Z" fill="#FDF4FB"/>
</svg>
