<svg width="18" height="17" viewBox="0 0 18 17" fill="none" xmlns="http://www.w3.org/2000/svg">
<path d="M12.75 0.619202H5.25C4.09006 0.620442 2.97798 1.08178 2.15778 1.90198C1.33758 2.72218 0.876241 3.83426 0.875 4.9942V12.4942C0.876241 13.6541 1.33758 14.7662 2.15778 15.5864C2.97798 16.4066 4.09006 16.868 5.25 16.8692H12.75C13.9099 16.868 15.022 16.4066 15.8422 15.5864C16.6624 14.7662 17.1238 13.6541 17.125 12.4942V4.9942C17.1238 3.83426 16.6624 2.72218 15.8422 1.90198C15.022 1.08178 13.9099 0.620442 12.75 0.619202ZM9 12.4942C8.25832 12.4942 7.5333 12.2743 6.91661 11.8622C6.29993 11.4502 5.81928 10.8645 5.53545 10.1793C5.25162 9.49404 5.17736 8.74004 5.32206 8.01261C5.46675 7.28518 5.8239 6.617 6.34835 6.09255C6.8728 5.5681 7.54098 5.21095 8.26841 5.06626C8.99584 4.92156 9.74984 4.99583 10.4351 5.27965C11.1203 5.56348 11.706 6.04413 12.118 6.66081C12.5301 7.2775 12.75 8.00252 12.75 8.7442C12.749 9.73845 12.3535 10.6917 11.6505 11.3947C10.9475 12.0977 9.99424 12.4932 9 12.4942ZM13.6875 4.9942C13.5021 4.9942 13.3208 4.93922 13.1667 4.8362C13.0125 4.73319 12.8923 4.58677 12.8214 4.41547C12.7504 4.24416 12.7318 4.05566 12.768 3.8738C12.8042 3.69195 12.8935 3.5249 13.0246 3.39379C13.1557 3.26268 13.3227 3.17339 13.5046 3.13722C13.6865 3.10104 13.875 3.11961 14.0463 3.19056C14.2176 3.26152 14.364 3.38168 14.467 3.53585C14.57 3.69003 14.625 3.87128 14.625 4.0567C14.625 4.30534 14.5262 4.5438 14.3504 4.71961C14.1746 4.89543 13.9361 4.9942 13.6875 4.9942ZM11.5 8.7442C11.5 9.23865 11.3534 9.722 11.0787 10.1331C10.804 10.5442 10.4135 10.8647 9.95671 11.0539C9.49989 11.2431 8.99723 11.2926 8.51227 11.1962C8.02732 11.0997 7.58186 10.8616 7.23223 10.512C6.8826 10.1623 6.6445 9.71688 6.54804 9.23193C6.45157 8.74697 6.50108 8.24431 6.6903 7.78749C6.87952 7.33068 7.19995 6.94023 7.61107 6.66553C8.0222 6.39082 8.50555 6.2442 9 6.2442C9.66304 6.2442 10.2989 6.50759 10.7678 6.97643C11.2366 7.44528 11.5 8.08116 11.5 8.7442Z" fill="#FDF4FB"/>
</svg>
