<svg width="24" height="24" viewBox="0 0 24 24" fill="none" xmlns="http://www.w3.org/2000/svg">
<path d="M20.25 15.75V5.25H3.75V15.75C3.75 16.1642 3.41421 16.5 3 16.5C2.58579 16.5 2.25 16.1642 2.25 15.75V5.25C2.25 4.85217 2.40815 4.47076 2.68945 4.18945C2.97076 3.90815 3.35217 3.75 3.75 3.75H20.25C20.6478 3.75 21.0292 3.90815 21.3105 4.18945C21.5919 4.47076 21.75 4.85218 21.75 5.25V15.75C21.75 16.1642 21.4142 16.5 21 16.5C20.5858 16.5 20.25 16.1642 20.25 15.75Z" fill="#C39DBC"/>
<path d="M22.5 18C22.9142 18 23.25 18.3358 23.25 18.75C23.25 19.1642 22.9142 19.5 22.5 19.5H1.5C1.08579 19.5 0.75 19.1642 0.75 18.75C0.75 18.3358 1.08579 18 1.5 18H22.5Z" fill="#C39DBC"/>
<path d="M16.5 18.75V16.5H12V18.75C12 19.1642 11.6642 19.5 11.25 19.5C10.8358 19.5 10.5 19.1642 10.5 18.75V15.75L10.5039 15.6729C10.5425 15.2949 10.8618 15 11.25 15H17.25L17.3271 15.0039C17.7051 15.0425 18 15.3618 18 15.75V18.75C18 19.1642 17.6642 19.5 17.25 19.5C16.8358 19.5 16.5 19.1642 16.5 18.75Z" fill="#C39DBC"/>
</svg>
